# xmcd CD database file
# Copyright (C) 1997 Ti Kan
# 
# Track frame offsets:
#     150
#     9047
#     21205
#     38820
#     50839
#     61827
#     72082
#     85902
#     99840
#     111905
#     124320
#     139007
#     149170
#     160702
#     174772
#     184372
#     201125
#     213405
#     227737
#     250407
#     266697
#     280072
#     300205
# 
# Disc length: 4304 seconds
# 
# Revision: 1
# Processed by: cddbd v1.4b41PL1 Copyright (c) Steve Scherf et al.
# Submitted via: DiscPlay 4.0.4
# 
DISCID=4010ce17
DTITLE=Waldemar Matuska - Waldemar Matuska a jeho 23 suvenyru
DYEAR=1900
DGENRE=
TTITLE0=Souvenirs
TTITLE1=Pisen pro Kristynku
TTITLE2=Uz modrej cinzak zhas
TTITLE3=Barborka
TTITLE4=L ska je l k
TTITLE5=Tristapetasedesat
TTITLE6=Veronika
TTITLE7=Me zmaha hic
TTITLE8=Jen se s pisnickou smat
TTITLE9=Ja bych si rad najal dum
TTITLE10=Jezabel
TTITLE11=My jsme ti kluci akorat
TTITLE12=Ctyri konsky kopyta
TTITLE13=Tisic mil
TTITLE14=Holky ja mam vsechny rad
TTITLE15=Sedm dostavniku
TTITLE16=Ja si vsadil na par tonu
TTITLE17=Az se muj cas ponachyli
TTITLE18=Rano
TTITLE19=To se nikdo nedovi
TTITLE20=Cervencove rano
TTITLE21=Zit, jen zit
TTITLE22=A tak dal nosis po kapsach sny mladi
EXTD=
EXTT0=
EXTT1=
EXTT2=
EXTT3=
EXTT4=
EXTT5=
EXTT6=
EXTT7=
EXTT8=
EXTT9=
EXTT10=
EXTT11=
EXTT12=
EXTT13=
EXTT14=
EXTT15=
EXTT16=
EXTT17=
EXTT18=
EXTT19=
EXTT20=
EXTT21=
EXTT22=
PLAYORDER=
